<?xml version="1.0" encoding="UTF-8"?>
<svg width="250px" height="68px" viewBox="0 0 250 68" version="1.1" xmlns="http://www.w3.org/2000/svg" xmlns:xlink="http://www.w3.org/1999/xlink">
    <title>Group 17</title>
    <defs>
        <polygon id="path-1" points="0 0.00053968254 68.3296638 0.00053968254 68.3296638 68 0 68"></polygon>
        <polygon id="path-3" points="0 67.9994603 249.791215 67.9994603 249.791215 -7.66935016e-15 0 -7.66935016e-15"></polygon>
    </defs>
    <g id="Page-1" stroke="none" stroke-width="1" fill="none" fill-rule="evenodd">
        <g id="Home" transform="translate(-225.000000, -46.000000)">
            <g id="Group-17" transform="translate(225.000000, 46.000000)">
                <g id="Group-3" transform="translate(0.000000, -0.000540)">
                    <mask id="mask-2" fill="white">
                        <use xlink:href="#path-1"></use>
                    </mask>
                    <g id="Clip-2"></g>
                    <path d="M49.9039588,34.6888508 L48.7851952,32.6537079 C48.6805315,32.4880254 48.618167,32.2932 48.618167,32.0821841 C48.618167,31.6925333 48.8280369,31.3519937 49.1420282,31.1663429 C49.7390998,30.786946 50.2005965,30.0993905 50.2005965,29.3076762 L50.2005965,17.4443746 C50.2005965,16.8464063 50.692462,16.357454 51.2927874,16.357454 L53.6002711,16.357454 C54.2005965,16.357454 54.692462,16.8464063 54.692462,17.4443746 L54.6908351,29.5812952 C54.6816161,31.7362476 53.2266269,34.1011365 51.2987527,35.0817397 C50.8556941,35.3024698 50.2168655,35.1902159 49.9039588,34.6888508 L49.9039588,34.6888508 Z M48.2922451,51.2052952 C48.2922451,51.8038032 47.8014642,52.2916762 47.2000542,52.2916762 L44.8936551,52.2916762 C44.2933297,52.2916762 43.8025488,51.8038032 43.8025488,51.2052952 C43.8025488,51.2052952 43.8144794,37.9469143 43.8133948,37.9247873 L43.8133948,37.9193905 C43.7873644,37.0607556 43.2743492,36.3208508 42.5389913,35.9689778 L40.7911605,35.079581 C38.8638286,34.0995175 37.4099241,31.7362476 37.3996204,29.5812952 L37.3996204,19.294946 L37.3990781,19.294946 L37.3990781,18.7757714 L37.3990781,17.4443746 C37.3990781,16.8464063 37.8914859,16.357454 38.4907267,16.357454 L40.7987527,16.357454 C41.3996204,16.357454 41.889859,16.8464063 41.889859,17.4443746 L41.889859,18.7757714 L41.889859,18.9392952 L41.8909436,18.9392952 L41.8909436,29.3076762 C41.8909436,30.4480254 42.6577549,30.9920254 43.2960412,31.342819 L44.9142625,32.1679937 C46.842679,33.1491365 48.2960412,35.5124063 48.2960412,37.6657397 L48.2922451,51.2052952 Z M34.3584056,27.7064381 C34.3584056,30.0130413 33.4457158,32.0368508 31.8329176,33.5031683 C33.4457158,34.9711048 34.3584056,37.0645333 34.3584056,39.3684381 L34.3584056,44.2304381 C34.3584056,48.6995492 30.7054772,52.2533587 26.2868221,52.2533587 L17.4760846,52.2533587 C16.8746746,52.2533587 16.3838937,51.764946 16.3838937,51.1669778 L16.3838937,48.8787238 C16.3838937,48.2818349 16.8746746,47.7928825 17.4760846,47.7928825 L26.2868221,47.7928825 C28.2531996,47.7928825 29.8632863,46.1862476 29.8632863,44.2304381 L29.8632863,39.3684381 C29.8632863,37.3446286 28.2531996,35.7401524 26.2868221,35.7401524 L24.1084056,35.7401524 C23.507538,35.7401524 23.016757,35.2506603 23.016757,34.6521524 L23.016757,32.3563429 C23.016757,31.7583746 23.4777115,31.2694222 24.0417028,31.2694222 L26.2868221,31.2694222 C28.2531996,31.2694222 29.8632863,29.6622476 29.8632863,27.7064381 L29.8632863,24.4947873 C29.8632863,22.5994222 28.5178416,20.8648825 26.3714208,20.8648825 C26.2672993,20.8648825 17.4701193,20.8665016 17.4701193,20.8665016 C16.8708785,20.8665016 16.379013,20.3770095 16.379013,19.7790413 L16.379013,17.4837714 C16.379013,16.8863429 16.8708785,16.3968508 17.4701193,16.3968508 C17.4701193,16.3968508 26.3508134,16.3963111 26.3703362,16.3963111 C30.7819414,16.3963111 34.3584056,19.9463429 34.3584056,24.3226286 L34.3584056,27.7064381 L34.3584056,27.7064381 Z M16.3741323,24.0992 C16.3741323,23.5017714 16.8665401,23.0133587 17.4663232,23.0133587 L19.7727223,23.0133587 C20.3725054,23.0133587 20.8638286,23.5017714 20.8638286,24.0992 L20.8638286,44.5672 C20.8638286,45.1646286 20.3725054,45.6530413 19.7727223,45.6530413 L17.4663232,45.6530413 C16.8665401,45.6530413 16.3741323,45.1646286 16.3741323,44.5672 L16.3741323,24.0992 Z M34.1642625,0.000215873016 C15.2954989,0.000215873016 -5.42299349e-05,15.2230413 -5.42299349e-05,34.0018349 C-5.42299349e-05,52.7757714 15.2954989,68.0002159 34.1642625,68.0002159 C53.0324837,68.0002159 68.3296638,52.7757714 68.3296638,34.0018349 C68.3296638,15.2230413 53.0324837,0.000215873016 34.1642625,0.000215873016 L34.1642625,0.000215873016 Z" id="Fill-1" fill="#FB4F14" mask="url(#mask-2)"></path>
                </g>
                <mask id="mask-4" fill="white">
                    <use xlink:href="#path-3"></use>
                </mask>
                <g id="Clip-5"></g>
                <polygon id="Fill-4" fill="#403D3A" mask="url(#mask-4)" points="121.242408 47.2346349 124.331345 47.2346349 124.331345 27.8638095 121.242408 27.8638095"></polygon>
                <path d="M122.732267,20.7240254 C122.185629,20.7240254 121.707321,20.9210095 121.297885,21.3165968 C120.889534,21.7127238 120.68346,22.1925016 120.68346,22.7607873 C120.68346,23.3285333 120.889534,23.8110095 121.297885,24.2049778 C121.707321,24.6011048 122.185629,24.7975492 122.732267,24.7975492 C123.276193,24.7975492 123.753416,24.6011048 124.163937,24.2049778 C124.573915,23.8110095 124.778905,23.3285333 124.778905,22.7607873 C124.778905,22.1925016 124.573915,21.7127238 124.163937,21.3165968 C123.753416,20.9210095 123.276193,20.7240254 122.732267,20.7240254" id="Fill-6" fill="#403D3A" mask="url(#mask-4)"></path>
                <polygon id="Fill-7" fill="#403D3A" mask="url(#mask-4)" points="104.835087 41.7542127 98.8800976 27.8638635 95.5682755 27.8638635 103.197343 45.2346254 99.5140456 53.9758635 102.638232 53.9758635 113.39474 27.8638635 110.231508 27.8638635"></polygon>
                <path d="M92.5128525,39.7899841 C92.5128525,43.0744921 90.6261931,44.7162063 86.8550434,44.7162063 L80.9759761,44.7162063 L80.9759761,34.8281429 L86.408731,34.8281429 C88.5171909,34.8281429 90.0616594,35.2156349 91.042679,35.9938571 C92.0226139,36.7699206 92.5128525,37.9885238 92.5128525,39.6421111 L92.5128525,39.7899841 Z M80.9759761,23.2697619 L85.7400759,23.2697619 C87.6245662,23.2697619 89.0074295,23.6054444 89.8881236,24.2714127 C90.7682755,24.9384603 91.2102495,26.0118889 91.2102495,27.4938571 L91.2102495,27.6417302 C91.2102495,29.2969365 90.7937636,30.4885556 89.9624187,31.2160476 C89.1310738,31.9451587 87.749295,32.3089048 85.8132863,32.3089048 L80.9759761,32.3089048 L80.9759761,23.2697619 Z M90.3534165,33.3461746 C93.0334599,32.4330317 94.3729393,30.5684286 94.3729393,27.7529048 L94.3729393,27.6055714 C94.3729393,23.036619 91.5204447,20.7521429 85.8132863,20.7521429 L77.8111171,20.7521429 L77.8111171,47.2349048 L86.9287961,47.2349048 C89.6592733,47.2349048 91.7997289,46.6115714 93.350705,45.3649048 C94.9000542,44.1176984 95.6766269,42.2719841 95.6766269,39.8266825 L95.6766269,39.6798889 C95.6766269,37.925381 95.2661063,36.5427143 94.4472343,35.5286508 C93.6294469,34.5189048 92.2639371,33.7914127 90.3534165,33.3461746 L90.3534165,33.3461746 Z" id="Fill-8" fill="#403D3A" mask="url(#mask-4)"></path>
                <polygon id="Fill-9" fill="#403D3A" mask="url(#mask-4)" points="114.750542 47.2346349 117.87744 47.2346349 117.87744 20.7238095 114.750542 20.7238095"></polygon>
                <path d="M204.232375,40.4577333 C204.232375,41.9137968 203.693872,43.0563048 202.614154,43.8830984 C201.534436,44.7088127 200.151573,45.1254476 198.46231,45.1254476 C196.007863,45.1254476 194.780098,44.0374476 194.780098,41.864146 C194.780098,39.3206222 197.036063,38.0491302 201.553959,38.0491302 L204.232375,38.0491302 L204.232375,40.4577333 Z M200.21231,27.5301778 C198.1532,27.5301778 196.403742,28.0180508 194.966106,28.9932571 C193.525759,29.9690032 192.705803,31.494146 192.510033,33.568146 L195.59897,33.568146 C195.896692,31.2464317 197.385846,30.0861143 200.06372,30.0861143 C201.553959,30.0861143 202.619035,30.426654 203.265456,31.1044952 C203.909165,31.7844952 204.232375,32.9010984 204.232375,34.4575429 L204.232375,35.8639556 L201.441703,35.8639556 C198.637473,35.8639556 196.311551,36.3458921 194.46231,37.3086857 C192.614696,38.2709397 191.689534,39.790146 191.689534,41.864146 C191.689534,43.7659873 192.291486,45.1923683 193.494848,46.1416698 C194.698753,47.0915111 196.255694,47.5675111 198.165672,47.5675111 C200.721529,47.5675111 202.744848,46.6419556 204.232375,44.7897651 L204.232375,47.2350667 L207.32077,47.2350667 L207.32077,34.4575429 C207.32077,29.8410984 204.952549,27.5301778 200.21231,27.5301778 L200.21231,27.5301778 Z" id="Fill-10" fill="#403D3A" mask="url(#mask-4)"></path>
                <path d="M219.723915,27.5303937 C218.2109,27.5303937 216.907755,27.8515048 215.817733,28.4942667 C214.725542,29.1359492 213.943004,29.9503302 213.472289,30.9379492 L213.472289,27.8639175 L210.381725,27.8639175 L210.381725,47.2347429 L213.472289,47.2347429 L213.472289,35.4934095 C213.472289,33.8392825 213.997777,32.5435048 215.054176,31.6049968 C216.10949,30.6670286 217.392028,30.1980444 218.904501,30.1980444 C220.468492,30.1980444 221.621963,30.5930921 222.368167,31.3815683 C223.111659,32.1732825 223.483134,33.4210286 223.483134,35.1226476 L223.483134,47.2347429 L226.570987,47.2347429 L226.570987,35.3449968 C226.570987,32.6557587 225.963612,30.6794413 224.748861,29.4203619 C223.532484,28.1602032 221.858948,27.5303937 219.723915,27.5303937" id="Fill-11" fill="#403D3A" mask="url(#mask-4)"></path>
                <path d="M137.031182,27.5303937 C135.518167,27.5303937 134.216649,27.8515048 133.124458,28.4942667 C132.031725,29.1359492 131.250271,29.9503302 130.779013,30.9379492 L130.779013,27.8639175 L127.690076,27.8639175 L127.690076,47.2347429 L130.779013,47.2347429 L130.779013,35.4934095 C130.779013,33.8392825 131.304501,32.5435048 132.3609,31.6049968 C133.414588,30.6670286 134.699837,30.1980444 136.21231,30.1980444 C137.775759,30.1980444 138.929772,30.5930921 139.673265,31.3815683 C140.418384,32.1732825 140.791486,33.4210286 140.791486,35.1226476 L140.791486,47.2347429 L143.880423,47.2347429 L143.880423,35.3449968 C143.880423,32.6557587 143.273048,30.6794413 142.057755,29.4203619 C140.839751,28.1602032 139.165672,27.5303937 137.031182,27.5303937" id="Fill-12" fill="#403D3A" mask="url(#mask-4)"></path>
                <polygon id="Fill-13" fill="#403D3A" mask="url(#mask-4)" points="244.406996 27.8639714 240.798536 27.8639714 232.721529 36.7892413 232.721529 20.7239714 229.632592 20.7239714 229.632592 47.2347968 232.721529 47.2347968 232.721529 37.1972413 241.35602 47.2347968 245.115239 47.2347968 236.170553 36.8631778"></polygon>
                <path d="M149.443167,35.6791143 C149.715401,33.9510508 150.36128,32.5878127 151.378633,31.5861619 C152.39436,30.5861302 153.686659,30.0863841 155.249024,30.0863841 C158.697505,30.0863841 160.558134,31.951527 160.831453,35.6791143 L149.443167,35.6791143 Z M155.249024,27.5304476 C152.569523,27.5304476 150.379718,28.4570825 148.679067,30.3087333 C146.98167,32.1609238 146.13026,34.5436222 146.13026,37.4562889 L146.13026,37.7531143 C146.13026,40.7159714 147.006074,43.093273 148.754989,44.8828603 C150.504447,46.6729873 152.768547,47.5672413 155.547289,47.5672413 C157.781562,47.5672413 159.641106,47.0567016 161.128633,46.0302254 C162.61833,45.0064476 163.52397,43.545527 163.84718,41.6420667 L160.756074,41.6420667 C160.359653,43.8893048 158.636768,45.0123841 155.584165,45.0123841 C153.598807,45.0123841 152.077657,44.4257492 151.025054,43.2519397 C149.970282,42.0808286 149.405748,40.3824476 149.332538,38.1605746 L163.995228,38.1605746 L163.995228,37.1600032 C163.995228,33.9273048 163.15846,31.5127651 161.482213,29.9190825 C159.809219,28.3275587 157.730586,27.5304476 155.249024,27.5304476 L155.249024,27.5304476 Z" id="Fill-14" fill="#403D3A" mask="url(#mask-4)"></path>
                <path d="M187.130369,39.7899841 C187.130369,43.0744921 185.243709,44.7162063 181.471475,44.7162063 L175.593492,44.7162063 L175.593492,34.8281429 L181.025705,34.8281429 C183.135249,34.8281429 184.678633,35.2156349 185.659653,35.9938571 C186.639588,36.7699206 187.130369,37.9885238 187.130369,39.6421111 L187.130369,39.7899841 Z M175.593492,23.2697619 L180.35705,23.2697619 C182.240456,23.2697619 183.624946,23.6054444 184.506182,24.2714127 C185.387419,24.9384603 185.828308,26.0118889 185.828308,27.4938571 L185.828308,27.6417302 C185.828308,29.2969365 185.411822,30.4885556 184.57885,31.2160476 C183.749675,31.9451587 182.366811,32.3089048 180.430803,32.3089048 L175.593492,32.3089048 L175.593492,23.2697619 Z M184.971475,33.3461746 C187.650976,32.4330317 188.990998,30.5684286 188.990998,27.7529048 L188.990998,27.6055714 C188.990998,23.036619 186.137419,20.7521429 180.430803,20.7521429 L172.429176,20.7521429 L172.429176,47.2349048 L181.547397,47.2349048 C184.27679,47.2349048 186.416703,46.6115714 187.967679,45.3649048 C189.517028,44.1176984 190.293059,42.2719841 190.293059,39.8266825 L190.293059,39.6798889 C190.293059,37.925381 189.883623,36.5427143 189.064751,35.5286508 C188.245879,34.5189048 186.881453,33.7914127 184.971475,33.3461746 L184.971475,33.3461746 Z" id="Fill-15" fill="#403D3A" mask="url(#mask-4)"></path>
                <path d="M247.572343,30.0343048 C247.822343,30.0343048 247.951952,29.9247492 247.951952,29.7158921 L247.951952,29.7061778 C247.951952,29.4773524 247.812039,29.3974794 247.572343,29.3974794 L247.291974,29.3974794 L247.291974,30.0343048 L247.572343,30.0343048 Z M246.812581,29.0294159 L247.582646,29.0294159 C248.091866,29.0294159 248.421584,29.238273 248.421584,29.6856698 L248.421584,29.6959238 C248.421584,30.0240508 248.232321,30.2032254 247.972017,30.2825587 L248.552278,31.2081143 L248.052278,31.2081143 L247.521909,30.3624317 L247.291974,30.3624317 L247.291974,31.2081143 L246.812581,31.2081143 L246.812581,29.0294159 Z M249.391215,30.1438603 C249.391215,29.0590984 248.631996,28.3030032 247.572343,28.3030032 C246.51269,28.3030032 245.753471,29.0693524 245.753471,30.1535746 C245.753471,31.2480508 246.55282,31.9836381 247.572343,31.9836381 C248.601627,31.9836381 249.391215,31.2280825 249.391215,30.1438603 L249.391215,30.1438603 Z M245.353254,30.1535746 C245.353254,28.9301143 246.332646,27.9451937 247.572343,27.9451937 C248.831562,27.9451937 249.791432,28.9204 249.791432,30.1438603 C249.791432,31.3872889 248.811497,32.3419873 247.572343,32.3419873 C246.342408,32.3419873 245.353254,31.3970032 245.353254,30.1535746 L245.353254,30.1535746 Z" id="Fill-16" fill="#403D3A" mask="url(#mask-4)"></path>
            </g>
        </g>
    </g>
</svg>